# xmcd CD Database Entry
#
# Track frame offsets:
# 150
# 23604
# 42095
# 57337
# 75895
# 86137
# 105100
# 126540
# 145544
# 155559
# 176749
# 194065
# 208885
# 223497
# 245307
#
# Disc length: 3460 seconds
#
# Revision: 1
# Processed by: cddbd v1.4PL0 Copyright (c) Steve Scherf et al.
# Submitted via: tcd 2.0b
#
DISCID=d20d820f
DTITLE=John Denver - Ulimate Hits Disc I
DYEAR=1900
DGENRE=
TTITLE0=Sunshine on My Shoulders
TTITLE1=Some Days Are Diamonds
TTITLE2=Thank God I'm a Country Boy
TTITLE3=Like a Sad Day
TTITLE4=The Eagle and the Hawk
TTITLE5=Fly Away
TTITLE6=Back Home Again
TTITLE7=Mr Bojangles
TTITLE8=Grandma's Feather Bed
TTITLE9=Rocky Mountain High
TTITLE10=Seasons of the Heart
TTITLE11=Welcome to My Morning
TTITLE12=Rhymes and Reasons
TTITLE13=My Sweet Lady
TTITLE14=Take Me Home, Country Roads
EXTD=
EXTT0=
EXTT1=
EXTT2=
EXTT3=
EXTT4=
EXTT5=
EXTT6=
EXTT7=
EXTT8=
EXTT9=
EXTT10=
EXTT11=
EXTT12=
EXTT13=
EXTT14=
PLAYORDER=
